<svg xmlns="http://www.w3.org/2000/svg" viewBox="0 0 300 300"><polygon points="33.18 171.69 48.84 112.42 91.3 173.07 112.14 140.94 134.97 173.07 172.94 107.8 195.19 175.44 219.94 118.14 256.29 175.44 175 185.81 110.54 185.81 79.56 185.81 35.37 193.21 39.13 178.1 33.18 171.69" style="fill:#95c11f"/><path d="M87,174.79c.25-.9.49-1.8.67-2.71.08-.38.15-.76.21-1.15l-.16,1.21a14.16,14.16,0,0,0,.36-3.73l-39.19-56-.44,1.65a20.23,20.23,0,0,1,.87,5.68c0,12.28.26,24.57-.66,36.83-.89,11.83-3.14,23.52-5,35.25l35.91-6H91A10.42,10.42,0,0,1,87,174.79Z" style="fill:#00a19a"/><path d="M256.29,175.44l-28-44.09a52.86,52.86,0,0,1,.59,6.4,46.23,46.23,0,0,1,1.51,7.72c1.21,10.18,2.08,20.39,3.5,30.56a7.14,7.14,0,0,1-.08,2.27Z" style="fill:#00a19a"/><path d="M196.16,177.81v-.06l0-.14c.08-.74.17-1.47.25-2.21.14-1.24.25-2.48.37-3.72l-1.62,3.76-21.13-64.21c0,10.16-.33,20.3-2.41,30.33-2.4,11.62-6.13,23-8.94,34.53-1.36,5.59-7.81,8.35-13.34,7.16-5.88-1.26-8.84-7.39-7.58-12.61,1.4-5.75,3-11.46,4.58-17.17L135,173.07,113.58,143A50.26,50.26,0,0,1,112,153.49c-.35,1.39-.72,2.76-1,4.15-.17.69-.32,1.39-.46,2.08,0,.27-.09.47-.12.61s0,.3-.07.48c-.25,1.77-.25,1.81,0,.11-.06.5-.11,1-.15,1.49-.07.74-.12,1.48-.17,2.22-.09,1.5-.16,3-.27,4.49a55.92,55.92,0,0,1-1.78,11.12,9.85,9.85,0,0,1-4.18,5.57H175l20-2.56C195.49,181.46,195.85,179.64,196.16,177.81Z" style="fill:#00a19a"/><rect x="28.31" y="165.73" width="236.71" height="35.65" style="fill:#36a9e1"/><path d="M58,180.7a61.66,61.66,0,0,0,13.62-4c4.88-2,9.74-3.76,15.18-3.08,4.1.52,8,1.92,12,3.08a56.19,56.19,0,0,0,5.58,1.4c.48.1,1,.19,1.46.25l.34,0c.85.05,1.7.11,2.56.1,7.75,0,15.43-3.86,23.41-4.44,8.83-.64,17,3,25.43,4.15,4.33.58,8.94-.25,13.38-.65,5.08-.45,10,.22,15,.92a91.33,91.33,0,0,0,12.86,1.17,29.29,29.29,0,0,0,10.76-2.32c4.06-1.55,8.15-2.89,12.57-2.08,3.14.57,6.66,2.1,9.4,2.49a56.26,56.26,0,0,0,6,.27c1.81,0,3.62-.08,5.42-.19s3.39-.18,5.08-.33h.1l.16,0,1.07-.18c.76-.12,1.51-.26,2.26-.4,4.18-.79,8.88-2,13.41-2v-5.26c-3.55,1.05-7,2.44-10.65,3.12a26.2,26.2,0,0,1-9.09.2,44.88,44.88,0,0,1-6.93-2.06,20.24,20.24,0,0,0-2.67-.73s-.91,0-1.11,0c-.44,0-.89,0-1.33,0s-1,.09-1.5.16c.37,0,.35,0-.07,0s-1.1.23-1.65.37c-1.25.32-2.48.7-3.71,1.08-2.58.79-5.39,1.76-8.13,1.63a13.43,13.43,0,0,1-4.59-1.2l-.15-.06-.21.24a10.13,10.13,0,0,1-2.42,2c-2.06,1.2-4.78,1.31-7.13,1.42a75.51,75.51,0,0,1-14.24-1c-2.1-.3-4.2-.65-6.29-1l-1.7-.26-1-.13c-.52,0-1-.1-1.56-.1a15,15,0,0,1-1.6.06c-1.22.18-2.43.39-3.66.53A23.74,23.74,0,0,1,168,174c-4.63-.58-9.17-1.67-13.77-2.14q-7.55-.76-15.13-.79c-5.06,0-10.13.22-15.18.37a114.74,114.74,0,0,0-14.09,1.67,64.38,64.38,0,0,1-16.64.34,113.86,113.86,0,0,1-15.67-3.17c-.53-.13-1.07-.22-1.6-.36l-.25-.07h-.16c-.3,0-.65,0-.94,0l-.2,0a22.57,22.57,0,0,0-5,1.65C65.89,172.92,63,174.6,59,174.73a43.12,43.12,0,0,1-8.92-1c-1.36-.24-2.72-.47-4.09-.67l-1-.14h-.09c-.75-.07-1.5-.16-2.25-.21a38.32,38.32,0,0,0-4.42-.1c-.34,0-1.91.24-1.49.14l-1.35.29a3,3,0,0,0-.64.23l-.06,0-.31.19v0c.28-.08.18,0,0,0-.08.35-.4,1.08-.34.37l0,0c-.51,2.77-2.37,5.08-5.66,5.1v5.09C38.13,182.26,48.18,182.37,58,180.7Z" style="fill:#1d71b8"/><path d="M123.3,199.52a2.69,2.69,0,0,1-1.86.74c-2.58,0-5.19,0-7.8.08a2.75,2.75,0,0,1-.39,1h17.46C128.23,200.8,125.77,200.12,123.3,199.52Z" style="fill:#1d71b8"/><path d="M262.53,186l-.34,0-.44.07-1.18.19c-4.1.68-8.15,1.63-12.3,2.08-8.1.86-17.24,1.26-25-1.35-.82-.28-1.62-.6-2.45-.85-.33-.1-1.78-.32-1.19-.32a4.69,4.69,0,0,0-.53,0s-.83.13-1,.17c-.93.24-1.85.54-2.76.85-3.42,1.15-6.64,2.65-10.26,3.19-9.34,1.4-18.36-1-27.58-1.73-4.93-.39-9.77.7-14.67,1a47.11,47.11,0,0,1-13.52-1.66A96.18,96.18,0,0,0,137.49,185a31.23,31.23,0,0,0-6,0c-1.22.1-.5.07-.24,0l-1.14.19c-.86.16-1.71.36-2.56.57-8.41,2.07-16.31,4.4-25.09,3.05a79.48,79.48,0,0,1-10.43-2.71q-3-.9-6.1-1.61a8.06,8.06,0,0,0-4.13.13c-3.93,1-7.25,2.86-11.26,4.23a72.47,72.47,0,0,1-14.47,3C47.19,193,38.18,193.11,29.38,195a6.4,6.4,0,0,1-1.07.14v2a14.38,14.38,0,0,0,5.39.7,2.74,2.74,0,0,1,1.58.46c6.94-.49,13.84-1.41,20.77-2.07a53.07,53.07,0,0,1,14.24.45l1.29.24a2.41,2.41,0,0,1,2.65-2.24c.94,0,1.89.09,2.83.16a67.27,67.27,0,0,1,10,.73A2.66,2.66,0,0,1,89,197.36a2.91,2.91,0,0,1,.16,1.41,43.18,43.18,0,0,0,8.73-2.22,2.58,2.58,0,0,1,2.66-2.69c5.57-.07,12.14-2,17.71-.66a63.94,63.94,0,0,1,6.64,1.33c7.08,1.76,14.65,4.36,22,2.36,3.81-1,7.34-2.72,11.39-2.78s8,1.33,12.06,1.33c8.52,0,17-.81,25.59-.88,4.4,0,8.81.17,13.22,0s8.77-.51,13.16-.84a115.48,115.48,0,0,1,25.14.39c4.31.61,9,1.2,13.29.38A19.52,19.52,0,0,0,265,193v-7.14C264.19,185.85,263.36,185.92,262.53,186Z" style="fill:#1d71b8"/><path d="M56.37,201.37H66.92l-1.48-.17A46.6,46.6,0,0,0,56.37,201.37Z" style="fill:#1d71b8"/><path d="M258.7,200c-4.82.37-9.58-.44-14.34-1.06-9.57-1.24-19.21-.12-28.77.53-8.7.59-17.39.19-26.09.45-8.33.25-17,1.47-25.23.11a31.13,31.13,0,0,0-6.38-.67,20,20,0,0,0-5.64,1.31c-.77.25-1.53.5-2.29.72H265v-2.74A19.68,19.68,0,0,1,258.7,200Z" style="fill:#1d71b8"/><polygon points="269.22 270.55 33.24 288.14 26.64 209.04 262.62 191.44 269.22 270.55" style="fill:#f9b233"/><path d="M48.09,231.56a25.33,25.33,0,0,1,7.74,2.54,16.33,16.33,0,0,1,3.92,3c.28.28.69.65,1.09,1l.32.07c2,.16,3.94.21,5.91.23,1.62,0,3.25,0,4.87,0,.35,0,1.86-.11,2.57-.14l.88-.17a32.69,32.69,0,0,0,3.67-1c.88-.3,3.91-1.82.82-.26,2.24-1.13,4.77-2,7.1-2.91a56.83,56.83,0,0,1,6.23-2.07c.35-.07.68-.16,1-.25l.34-.17a33.68,33.68,0,0,1,5-2.12c5.85-1.68,11.65-.45,17.48.51l1,0a2,2,0,0,1,1.2-.12c1.29-.38,2.5-.95,3.77-1.37,5.86-2,12.45-2,17.27,2l1.38-.44A80.2,80.2,0,0,1,156.2,226c6.46-.95,13-1,19.3.91,2.36.7,4.62,1.69,7,2.41,1,.3,2,.57,3,.79l.7.14c.77,0,1.54.09,2.32.05l.25-.06a23.49,23.49,0,0,0,2.36-.65c1.53-.75,1-.43.42-.16l.25-.1c4.47-2,8.59-4.68,13.12-6.66a164.62,164.62,0,0,1,15.84-6c5.75-1.82,11.24-1.07,17.08-.2l.37.06c.57,0,1.14.1,1.71.12s1,0,1.48,0c1.9-.6,3.79-1.27,5.7-1.85a46,46,0,0,1,9.5-1.53c.78-.06,1.62-.18,2.45-.25a2.87,2.87,0,0,1,.88-.05c.76-.26,1.54-.43,2.3-.72a8.71,8.71,0,0,1,2.14-.49l-1-11.56c-3.7.89-7.48,1.47-11.21,2.3-5.38,1.21-10.44,3.42-15.85,4.56a35.17,35.17,0,0,1-19.76-1.07l-1.56-.52a24.21,24.21,0,0,1-2.88,2.22c-5.06,3.36-11.18,2.78-16.53.68a17.88,17.88,0,0,1-4,1.75,18.85,18.85,0,0,1-10.55-.39l-.13,0a2,2,0,0,1-1-.2l-1.62-.05c-2.1,0-4.2,0-6.29.17l-.79.07c-.52.11-1.06.27-1.59.39a28.46,28.46,0,0,1-3.7,2.63,19.07,19.07,0,0,1-9.76,2.33,45.59,45.59,0,0,1-9.3-1.52c-1-.23-2-.45-3-.64l-.61,0c-.44.13-.9.24-1.34.39-.72.24-1.43.51-2.14.77a50.14,50.14,0,0,1-5.64,1.57,126.18,126.18,0,0,1-14.73,2.37,46,46,0,0,1-14.2-.58l-.16,0-1.67.46a24.87,24.87,0,0,1-7.15,1.8,20.09,20.09,0,0,1-8.4-1.43c-1.28-.48-2.55-1-3.82-1.5l-.17,0-.83-.26c-.29,0-.63,0-.89,0-.43.12-.87.21-1.29.33-2.14.61-4.17,1.5-6.26,2.25a22.76,22.76,0,0,1-9.23,1.63,29.53,29.53,0,0,1-9.56-2.53h0l1.39.55-1.09-.4-.4-.12-.62.18c-1.4.63-2.86,1.21-4.29,1.75-4.62,1.75-10,2.12-14.87,2.57q-4,.36-8.13.45l.74,8.85A61.36,61.36,0,0,1,48.09,231.56Z" style="fill:#7d4e24"/><path d="M37.65,264.93a84.58,84.58,0,0,0,10.84,5.21c.93.34,1.88.65,2.85.9a15,15,0,0,0,1.64.38h.38a20.85,20.85,0,0,0,4.89-.56c4-.87,7.88-2.19,11.94-2.78a91.26,91.26,0,0,0,13.12-2.91,64.82,64.82,0,0,1,12.8-2.72,87.73,87.73,0,0,1,12.24.09c8,.45,16.67,1.77,24.39.82,4-.48,7.86-1.58,11.79-2.31a55.08,55.08,0,0,1,13.25-1,86.49,86.49,0,0,1,13.62,2c2,.44,3.93,1,5.89,1.46a12.56,12.56,0,0,0,3.91.4c3.81-.37,7.45-2,11.18-2.7,4.18-.83,8.5-1.09,12.71-1.78a146.94,146.94,0,0,0,24.33-5.76c1.55-.54,3.68-1.69,5.54-2.25a16.58,16.58,0,0,1,6.2-.49,35.52,35.52,0,0,0,5.9.34,31.68,31.68,0,0,0,5.22-.85c5.1-1.16,10-2.69,15-3.4l-1.19-14.28a50.66,50.66,0,0,1-9.12,1.14l-1.17.08h0c-.44.11-1,.26-1,.26a28.29,28.29,0,0,0-3.52,1,31.32,31.32,0,0,1-9.47,2.05,53.54,53.54,0,0,1-10.11-1l-.37-.06c-.34,0-.75-.1-1-.12-.61-.05-1.23-.07-1.84-.06-.56.29-3,.83-3.44,1-1.43.48-2.86,1-4.27,1.49-1.15.41-2.29.95-3.46,1.29l.22-.06c.81-.28,2-.6,0,0l-.34.13c-.68.28-1.35.57-2,.86q-3.72,1.66-7.25,3.64c-4.19,2.33-8.64,4.67-13.41,5.71a34.14,34.14,0,0,1-15.38-.27,55.91,55.91,0,0,1-6.36-2c-1.25-.46-2.5-.93-3.8-1.28-.63-.17-1.28-.32-1.93-.45q-.57-.12-1.14-.21l1.37.17c-.67-.5-2.89-.19-3.74-.18-.69,0-1.38.07-2.06.1l-.32.07c-2.06.44-4.13.75-6.17,1.31-5.16,1.43-10.19,4-15.65,4.08a17.94,17.94,0,0,1-10-2.94l-.53-.37c-1.44.48-2.82,1.15-4.31,1.51-5.63,1.37-11.24.31-16.82-.7h-.07l-1.26,0a1.69,1.69,0,0,1-.78.21l-.23.06c-.37.17-.73.35-1.1.51a33.15,33.15,0,0,1-5.27,1.9c-1.2.31-2.38.66-3.55,1.06-.88.3-3.6,1.68-.66.2-2.32,1.17-5,2.07-7.37,3-7.91,3.11-16.48,3.4-24.93,2.91-5.85-.33-11.41-1.1-15.92-5a24.15,24.15,0,0,1-1.8-1.85l-.11-.11a4.67,4.67,0,0,0-.5-.14l-1-.21c-1.7-.38,1.27.14,1.26.14-1.72-.59-4.39-.22-6.19-.13-.93.05-1.86.12-2.78.21h-.06c-2.55.47-.8.09,0,0l.48-.09c-.4.08-.82.12-1.22.18-1.45.21-2.9.47-4.34.76l1.08,12.88A5.55,5.55,0,0,1,37.65,264.93Z" style="fill:#7d4e24"/><path d="M262.08,259.14A89.18,89.18,0,0,1,248.53,262a31.54,31.54,0,0,1-6.64-.11c-2.19-.24-3.35-.28-5.1.49a84,84,0,0,1-13.24,4.32,200.46,200.46,0,0,1-25.88,4.66c-3.7.45-7.33,1.75-11,2.58a26.65,26.65,0,0,1-13.16-.13c-7.55-2-15.71-3.77-23.59-2.67-4,.57-8,1.67-12,2.38a61.62,61.62,0,0,1-12.79.93c-8.57-.26-17.11-1.39-25.7-1.25-7.86.13-15.19,3.71-23,5a107.93,107.93,0,0,0-11.05,2.17,46.79,46.79,0,0,1-11.38,2c-7.75,0-15.32-4.29-21.87-7.83l1.14,13.65,236-17.59-1.07-12.87C266.12,258.05,264.06,258.61,262.08,259.14Z" style="fill:#7d4e24"/><path d="M180.81,209.62l-.72,0,.78.19C181.48,209.8,181.87,209.63,180.81,209.62Z" style="fill:#7d4e24"/><path d="M153.18,95.2l2.42-.34a21.65,21.65,0,0,0-18.08-18.11L131,30.5l-5.82,48.37a20.81,20.81,0,0,0-10.6,21.77l2-.28L132.4,248.65l10.76-1-5.68-53.35,20.64-2,5.69,53.34,5.36-.51ZM135,118.14c-6.8,0-12.32-5.72-12.32-5.72s5.52-5.72,12.32-5.72,12.32,5.72,12.32,5.72S141.78,118.14,135,118.14Z" style="fill:#e94e1b"/><path d="M153.18,95.2l2.42-.34a21.65,21.65,0,0,0-18.08-18.11L131,30.5l-.2,1.66a190,190,0,0,1-.4,21.6,132.75,132.75,0,0,0,.6,22.65A107.43,107.43,0,0,0,134,89.55c1.58,5.34,4,10.41,5.48,15.77.22.79.44,1.59.64,2.39a22.39,22.39,0,0,1,7.2,4.71,22.5,22.5,0,0,1-5.32,3.85c1.54,8.24,2.44,16.61,3.53,24.92,1.06,6.62,2.65,13.05,4.13,19.61,2.36,10.45,2.83,21.29,2.86,32l5.63-.53,5.69,53.34,5.36-.51Z" style="fill:#be1622"/><path d="M218.86,109.57l4.89-63.52-16,60.19a23.12,23.12,0,0,0-23.17,19l12.86,2.12L185,126.42,175,251.33l14.78,1.06V202.74h19.88v51.07l7.21.52,9.8-122.21,2.08.34A22.16,22.16,0,0,0,218.86,109.57Zm-15.25,37.09c-6.81,0-12.32-5.72-12.32-5.72s5.51-5.72,12.32-5.72,12.32,5.72,12.32,5.72S210.41,146.66,203.61,146.66Z" style="fill:#e94e1b"/><path d="M218.86,109.57l4.49-58.32c-.46,2.32-1,4.62-1.51,6.87C221,62,220.33,66,219.74,69.9c-1,7.5-1.87,15-2.81,22.52-.68,5.51-1.29,11.08-2.28,16.55-.38,2.11-.92,4.2-1.41,6.29l.29.81a35.06,35.06,0,0,1,1.41,6.75,25.62,25.62,0,0,1,.4,6.47c-.33,3.09-.85,6.16-1.33,9.23,0,.23-.07.45-.1.68a18.82,18.82,0,0,1,2,1.74,21.36,21.36,0,0,1-2.59,2.17q-.53,3.72-1.07,7.45c-1,7-1.81,14-2.15,21.05s.12,13.87-.2,20.81c-.16,3.45-.45,6.88-.82,10.32h.56v51.07l7.21.52,9.8-122.21,2.08.34A22.16,22.16,0,0,0,218.86,109.57Z" style="fill:#be1622"/><path d="M96.23,71.41l-2-57.48L82.56,69.44A31.52,31.52,0,0,0,54.32,96.68l7.58.92-18.83,139,13.46,1.63L63,190.19l21.11,2.55L77.64,240.8l13.46,1.62,18.83-139L115,104A30.46,30.46,0,0,0,96.23,71.41ZM63.5,113.52S69,107.8,75.82,107.8s12.32,5.72,12.32,5.72-5.52,5.72-12.32,5.72S63.5,113.52,63.5,113.52Zm14.14,33.77a10.56,10.56,0,0,1,5.2-.41,8.91,8.91,0,0,1,5.79,3c-11,.65-18.44.66-23.31.45a2.9,2.9,0,0,1-.39-1.93c.41-2.33,4-3.72,7.93-3.1A10.14,10.14,0,0,1,77.64,147.29Zm13.57,6.82c-.71,4.38-5.36,7.35-10.37,6.62a9.7,9.7,0,0,1-5.94-3.15,10.06,10.06,0,0,1-6.67,1.32,9.16,9.16,0,0,1-7.46-5.72c6.2-.14,15.68-1,29.8-3.35A7.2,7.2,0,0,1,91.21,154.11Zm-2.09-20.34c-6.8,0-12.32-5.73-12.32-5.73s5.52-5.72,12.32-5.72S101.45,128,101.45,128,95.93,133.77,89.12,133.77Z" style="fill:#e94e1b"/><path d="M96.23,71.41l-2-57.48-.58,2.78c-.55,10-2.71,19.95-2.7,30.06,0,6,.42,12,.3,17.94-.07,4-.41,7.92-.22,11.87.1.41.22.82.35,1.23,1,1.75,2.05,3.46,2.9,5.28,1.5,3.22,2.77,5.76,3.34,9.09.35,2,.62,4,.88,6l.12.65a20,20,0,0,1,1.11,6.43v2.67c0,.46,0,.91-.06,1.36.08,1.59.13,3.17.17,4.76.1,4.19.14,8.4,0,12.6a20.37,20.37,0,0,1,1.61,1.42,19.49,19.49,0,0,1-1.74,1.53c-.15,2.69-.38,5.36-.72,8-.69,5.23-1.33,9.73-3,14.33a36.69,36.69,0,0,1-.64,13.95c-1,4.92-2.25,9.79-3.15,14.72-.84,7.73-1.16,15.5-2.2,23.21a112.47,112.47,0,0,1-3.37,17.73c-1,3.42-2,6.77-2.73,10.23-.3,3.24-.42,6.48-.43,9.73h0l7.67.92,18.83-139L115,104A30.46,30.46,0,0,0,96.23,71.41Z" style="fill:#be1622"/></svg>