<?xml version="1.0" encoding="utf-8"?>
<!-- Generator: Adobe Illustrator 25.3.1, SVG Export Plug-In . SVG Version: 6.00 Build 0)  -->
<svg version="1.1" id="Layer_1" xmlns="http://www.w3.org/2000/svg" xmlns:xlink="http://www.w3.org/1999/xlink" x="0px" y="0px"
	 viewBox="0 0 300 300" style="enable-background:new 0 0 300 300;" xml:space="preserve">
<style type="text/css">
	.st0{fill:#95C11F;}
	.st1{fill:#00A19A;}
	.st2{fill:#36A9E1;}
	.st3{fill:#1D71B8;}
	.st4{fill:#F9B233;}
	.st5{fill:#7D4E24;}
	.st6{fill:#E94E1B;}
	.st7{fill:#BE1622;}
</style>
<rect x="-8.6" y="-9.1" width="317.5" height="317.5"/>
<polygon class="st0" points="286.7,171.2 267.7,110.5 216.3,172.6 191,139.7 163.4,172.6 117.4,105.8 90.5,175 60.5,116.4 16.4,175 
	114.9,185.6 193,185.6 230.5,185.6 284,193.2 279.5,177.8 "/>
<path class="st1" d="M221.5,174.4c-0.3-0.9-0.6-1.8-0.8-2.8c-0.1-0.4-0.2-0.8-0.3-1.2l0.2,1.2c-0.4-1.1-0.4-2.5-0.4-3.8l47.5-57.3
	l0.5,1.7c-0.7,1.9-1,3.9-1,5.8c0,12.6-0.3,25.1,0.8,37.7c1.1,12.1,3.8,24.1,6,36.1l-43.5-6.2h-13.8
	C220.9,183.1,222.9,178.4,221.5,174.4z"/>
<path class="st1" d="M16.4,175l33.9-45.1c-0.4,2.2-0.6,4.4-0.7,6.5c-0.9,2.6-1.5,5.2-1.8,7.9c-1.5,10.4-2.5,20.9-4.2,31.3
	c-0.1,0.8-0.1,1.6,0.1,2.3L16.4,175z"/>
<path class="st1" d="M89.3,177.5C89.3,177.4,89.3,177.4,89.3,177.5c0-0.1,0-0.2,0-0.2c-0.1-0.8-0.2-1.5-0.3-2.3
	c-0.2-1.3-0.3-2.5-0.4-3.8l2,3.8l25.6-65.7c0,10.4,0.4,20.8,2.9,31.1c2.9,11.9,7.4,23.5,10.8,35.3c1.6,5.7,9.5,8.5,16.2,7.3
	c7.1-1.3,10.7-7.6,9.2-12.9c-1.7-5.9-3.6-11.7-5.5-17.6l13.8,20.1l25.9-30.8c0.1,3.6,0.9,7.3,2,10.8c0.4,1.4,0.9,2.8,1.3,4.3
	c0.2,0.7,0.4,1.4,0.6,2.1c0.1,0.3,0.1,0.5,0.1,0.6c0,0.1,0,0.3,0.1,0.5c0.3,1.8,0.3,1.9,0,0.1c0.1,0.5,0.1,1,0.2,1.5
	c0.1,0.8,0.1,1.5,0.2,2.3c0.1,1.5,0.2,3.1,0.3,4.6c0.3,3.8,0.9,7.7,2.2,11.4c0.8,2.5,2.7,4.4,5.1,5.7h-86.4L90.6,183
	C90.1,181.2,89.7,179.3,89.3,177.5z"/>
<rect x="5.9" y="165.1" transform="matrix(-1 -1.224647e-16 1.224647e-16 -1 298.4421 366.6805)" class="st2" width="286.7" height="36.5"/>
<path class="st3" d="M256.6,180.4c-5.9-0.8-11.3-2.2-16.5-4.1c-5.9-2.1-11.8-3.9-18.4-3.2c-5,0.5-9.7,2-14.5,3.1
	c-2.2,0.6-4.5,1.1-6.8,1.4c-0.6,0.1-1.2,0.2-1.8,0.3c-0.1,0-0.2,0-0.4,0c-1,0.1-2.1,0.1-3.1,0.1c-9.4,0-18.7-4-28.3-4.5
	c-10.7-0.7-20.6,3.1-30.8,4.2c-5.2,0.6-10.8-0.3-16.2-0.7c-6.2-0.5-12.1,0.2-18.2,0.9c-5.2,0.6-10.2,1.2-15.6,1.2
	c-4.7,0-8.6-0.9-13-2.4c-4.9-1.6-9.9-3-15.2-2.1c-3.8,0.6-8.1,2.2-11.4,2.5c-1.7,0.2-4.9,0.3-7.2,0.3c-2.2,0-4.4-0.1-6.6-0.2
	c-2.1-0.1-4.1-0.2-6.2-0.3c0,0-0.1,0-0.1,0c-0.1,0-0.1,0-0.2,0c-0.4-0.1-0.9-0.1-1.3-0.2c-0.9-0.1-1.8-0.3-2.7-0.4
	c-5.1-0.8-10.8-2-16.2-2v-5.4c4.3,1.1,8.5,2.5,12.9,3.2c3.7,0.6,7.3,0.7,11,0.2c2.9-0.4,5.6-1.3,8.4-2.1c1.1-0.3,2.1-0.6,3.2-0.7
	c0,0,1.1,0,1.4,0c0.5,0,1.1,0,1.6,0.1c0.6,0,1.2,0.1,1.8,0.2c-0.4,0-0.4,0,0.1,0c0.7,0.1,1.3,0.2,2,0.4c1.5,0.3,3,0.7,4.5,1.1
	c3.1,0.8,6.5,1.8,9.8,1.7c2-0.1,3.8-0.6,5.6-1.2c0.1,0,0.1,0,0.2-0.1c0.1,0.1,0.2,0.2,0.3,0.2c0.8,0.8,1.8,1.5,2.9,2
	c2.5,1.2,5.8,1.3,8.6,1.5c5.8,0.2,11.6-0.4,17.2-1.1c2.6-0.3,5.1-0.7,7.6-1c0.7-0.1,1.4-0.2,2-0.3c0.2,0,1-0.1,1.2-0.1
	c0.6-0.1,1.3-0.1,1.9-0.1c0.4,0,2.5,0.2,1.9,0.1c1.5,0.2,2.9,0.4,4.4,0.5c2.3,0.2,4.5,0.3,6.8,0.1c5.6-0.6,11.1-1.7,16.7-2.2
	c6.1-0.5,12.2-0.8,18.3-0.8c6.1,0,12.3,0.2,18.4,0.4c6,0.2,11.2,1,17.1,1.7c6.7,0.9,13.4,1,20.2,0.4c6.5-0.6,12.7-1.9,19-3.2
	c0.6-0.1,1.3-0.2,1.9-0.4c0.1,0,0.2-0.1,0.3-0.1c0.1,0,0.1,0,0.2,0c0.4,0,0.8,0,1.1,0c0.1,0,0.2,0,0.2,0c2.1,0.3,4.1,1,6,1.7
	c4.3,1.5,7.8,3.3,12.6,3.4c3.7,0.1,7.2-0.5,10.8-1.1c1.6-0.2,3.3-0.5,4.9-0.7c0.4-0.1,0.8-0.1,1.2-0.1c0,0,0.1,0,0.1,0
	c0.9-0.1,1.8-0.2,2.7-0.2c1.8-0.1,3.6-0.2,5.4-0.1c0.4,0,2.3,0.3,1.8,0.1c0.5,0.1,1.1,0.2,1.6,0.3c0.2,0,0.6,0.2,0.8,0.2
	c0,0,0,0,0.1,0c0.1,0.1,0.3,0.1,0.4,0.2c0,0,0,0,0,0c-0.3-0.1-0.2,0,0,0c0.1,0.4,0.5,1.1,0.4,0.4c0,0,0,0,0,0
	c0.6,2.8,2.9,5.2,6.9,5.2v5.2C280.7,182,268.5,182.1,256.6,180.4z"/>
<path class="st3" d="M177.5,199.7c0.6,0.5,1.4,0.8,2.3,0.8c3.1,0,6.3,0,9.4,0.1c0.1,0.4,0.2,0.7,0.5,1.1h-21.1
	C171.5,201,174.5,200.3,177.5,199.7z"/>
<path class="st3" d="M8.9,185.8c0.2,0,0.3,0,0.4,0c0.1,0,0.3,0,0.5,0.1c0.5,0.1,1,0.1,1.4,0.2c5,0.7,9.9,1.7,14.9,2.1
	c9.8,0.9,20.9,1.3,30.3-1.4c1-0.3,2-0.6,3-0.9c0.4-0.1,2.2-0.3,1.4-0.3c0.2,0,0.4,0,0.6,0c0,0,1,0.1,1.2,0.2
	c1.1,0.2,2.2,0.6,3.3,0.9c4.1,1.2,8,2.7,12.4,3.3c11.3,1.4,22.2-1,33.4-1.8c6-0.4,11.8,0.7,17.8,1c5.5,0.3,11.1-0.6,16.4-1.7
	c4.7-1,9.5-2.2,14.3-2.7c2.4-0.2,4.8-0.2,7.2,0c1.5,0.1,0.6,0.1,0.3,0c0.5,0.1,0.9,0.1,1.4,0.2c1,0.2,2.1,0.4,3.1,0.6
	c10.2,2.1,19.7,4.5,30.4,3.1c4.3-0.6,8.5-1.7,12.6-2.8c2.4-0.6,4.9-1.2,7.4-1.6c1.8-0.4,3.1-0.2,5,0.1c4.8,1,8.8,2.9,13.6,4.3
	c5.7,1.6,11.6,2.5,17.5,3.1c10.8,1.1,21.7,1.2,32.4,3.2c0.4,0.1,0.9,0.1,1.3,0.1v2c-2.1,0.7-4.3,0.7-6.5,0.7c-0.8,0-1.4,0.2-1.9,0.5
	c-8.4-0.5-16.8-1.4-25.1-2.1c-5.9-0.5-11.4-0.4-17.2,0.5c-0.5,0.1-1,0.2-1.6,0.2c-0.1-1.2-1.2-2.3-3.2-2.3c-1.1,0-2.3,0.1-3.4,0.2
	c-4.1,0.1-8.1,0.1-12.1,0.7c-1.1,0.2-2,1-2.3,1.9c-0.2,0.5-0.3,1-0.2,1.5c-3.6-0.4-7.1-1.3-10.6-2.3c0-1.3-1-2.7-3.2-2.7
	c-6.7-0.1-14.7-2.1-21.4-0.7c-2.7,0.3-5.4,0.8-8.1,1.4c-8.6,1.8-17.7,4.5-26.6,2.4c-4.6-1.1-8.9-2.8-13.8-2.8
	c-4.9-0.1-9.7,1.4-14.6,1.4c-10.3,0-20.7-0.8-31-0.9c-5.3,0-10.7,0.2-16,0c-5.3-0.2-10.6-0.5-15.9-0.9c-10.2-0.6-20.3-0.8-30.4,0.4
	c-5.2,0.6-10.9,1.2-16.1,0.4c-1.9-0.3-3.5-0.9-5.2-1.6v-7.3C6.9,185.7,7.9,185.8,8.9,185.8z"/>
<path class="st3" d="M258.6,201.6h-12.8c0.6-0.1,1.2-0.1,1.8-0.2C251.3,201.1,254.9,201.3,258.6,201.6z"/>
<path class="st3" d="M13.5,200.2c5.8,0.4,11.6-0.4,17.4-1.1c11.6-1.3,23.3-0.1,34.8,0.5c10.5,0.6,21.1,0.2,31.6,0.5
	c10.1,0.3,20.6,1.5,30.6,0.1c2.6-0.4,5.1-0.8,7.7-0.7c2.3,0.1,4.6,0.7,6.8,1.3c0.9,0.3,1.9,0.5,2.8,0.7H5.9v-2.8
	C8.3,199.7,10.9,200,13.5,200.2z"/>
<polygon class="st4" points="0.8,272.4 286.6,290.4 294.6,209.4 8.8,191.4 "/>
<path class="st5" d="M268.6,232.5c-3.3,0.4-6.5,1.3-9.4,2.6c-1.7,0.8-3.4,1.9-4.7,3c-0.3,0.3-0.8,0.7-1.3,1.1c-0.1,0-0.2,0-0.4,0.1
	c-2.4,0.2-4.8,0.2-7.2,0.2c-2,0-3.9,0-5.9,0c-0.4,0-2.2-0.1-3.1-0.1c-0.4-0.1-0.7-0.1-1.1-0.2c-1.5-0.3-3-0.6-4.4-1.1
	c-1.1-0.3-4.7-1.9-1-0.3c-2.7-1.2-5.8-2-8.6-3c-2.5-0.8-5-1.5-7.5-2.1c-0.4-0.1-0.8-0.2-1.2-0.3c-0.3-0.1-0.5-0.2-0.4-0.2
	c-2-0.8-4-1.7-6.1-2.2c-7.1-1.7-14.1-0.5-21.2,0.5c-0.4,0-0.8,0-1.2,0c-0.1-0.1-0.6-0.2-1.5-0.1c-1.6-0.4-3-1-4.6-1.4
	c-7.1-2-15.1-2.1-20.9,2.1c-0.6-0.2-1.1-0.3-1.7-0.5c-5.7-1.7-11.5-3.2-17.5-3.9c-7.8-1-15.7-1-23.4,0.9c-2.9,0.7-5.6,1.7-8.5,2.5
	c-1.2,0.3-2.4,0.6-3.6,0.8c-0.3,0.1-0.6,0.1-0.8,0.1c-0.9,0-1.9,0.1-2.8,0.1c-0.1,0-0.2,0-0.3-0.1c-1-0.2-1.9-0.4-2.9-0.7
	c-1.9-0.8-1.3-0.4-0.5-0.2c-0.1,0-0.2-0.1-0.3-0.1c-5.4-2.1-10.4-4.8-15.9-6.8c-6.2-2.3-12.7-4.4-19.2-6.1c-7-1.9-13.6-1.1-20.7-0.2
	c-0.1,0-0.3,0-0.4,0.1c-0.7,0-1.4,0.1-2.1,0.1c-0.6,0-1.2,0-1.8,0c-2.3-0.6-4.6-1.3-6.9-1.9c-3.7-0.9-7.6-1.3-11.5-1.6
	c-0.9-0.1-2-0.2-3-0.3c0,0-0.3-0.1-1.1-0.1c-0.9-0.3-1.9-0.4-2.8-0.7c-0.9-0.3-1.7-0.4-2.6-0.5l1.2-11.8c4.5,0.9,9.1,1.5,13.6,2.4
	c6.5,1.2,12.7,3.5,19.2,4.7c8.1,1.4,16.2,1.3,23.9-1.1c0.6-0.2,1.3-0.4,1.9-0.5c1.1,0.8,2.2,1.6,3.5,2.3c6.1,3.4,13.5,2.8,20,0.7
	c1.5,0.7,3.2,1.4,4.9,1.8c4.3,1,8.5,0.7,12.8-0.4c0,0,0.1,0,0.2,0c0.4,0,0.8-0.1,1.1-0.2c0.7,0,1.3,0,2-0.1c2.5,0,5.1,0,7.6,0.2
	c0.3,0,0.6,0,1,0.1c0.6,0.1,1.3,0.3,1.9,0.4c1.4,1,2.9,1.9,4.5,2.7c3.5,1.7,7.7,2.5,11.8,2.4c3.8-0.1,7.6-0.8,11.3-1.6
	c1.2-0.2,2.4-0.5,3.6-0.7c0.2,0,0.5,0,0.7,0c0.5,0.1,1.1,0.2,1.6,0.4c0.9,0.2,1.7,0.5,2.6,0.8c2.2,0.7,4.5,1.2,6.8,1.6
	c5.9,1.1,11.8,1.9,17.8,2.4c5.8,0.5,11.4,0.4,17.2-0.6c0,0,0.1,0,0.2,0c0.8,0.2,1.8,0.4,2,0.5c3.1,0.9,5.3,1.6,8.7,1.8
	c3.5,0.2,6.9-0.5,10.2-1.5c1.6-0.5,3.1-1,4.6-1.5c0.1,0,0.1,0,0.2-0.1c0.3-0.1,0.7-0.2,1-0.3c0.4,0,0.8,0,1.1,0
	c0.5,0.1,1,0.2,1.6,0.3c2.6,0.6,5.1,1.5,7.6,2.3c3.5,1.1,7.4,1.9,11.2,1.7c4.4-0.3,7.6-1.2,11.6-2.6c0,0,0,0,0,0
	c-0.6,0.2-1.1,0.4-1.7,0.6c0.4-0.1,0.9-0.3,1.3-0.4c0.2,0,0.3-0.1,0.5-0.1c0.3,0.1,0.5,0.1,0.7,0.2c1.7,0.6,3.5,1.2,5.2,1.8
	c5.6,1.8,12.1,2.2,18,2.6c3.3,0.3,6.6,0.4,9.8,0.5l-0.9,9.1C284.4,231.7,276.4,231.5,268.6,232.5z"/>
<path class="st5" d="M281.3,266.6c-4.2,1.9-8.8,4-13.1,5.3c-1.1,0.3-2.3,0.7-3.5,0.9c-0.6,0.1-1.3,0.3-2,0.4c-0.1,0-0.3,0-0.5,0
	c-2.6-0.1-3.3-0.1-5.9-0.6c-4.8-0.9-9.5-2.2-14.5-2.8c-5.4-0.7-10.6-1.7-15.9-3c-5.1-1.3-10.2-2.4-15.5-2.8
	c-4.9-0.4-9.9-0.1-14.8,0.1c-9.6,0.5-20.2,1.8-29.5,0.8c-4.8-0.5-9.5-1.6-14.3-2.4c-5.3-0.8-10.6-1.3-16-1c-5.5,0.3-11.1,1-16.5,2
	c-2.4,0.4-4.8,1-7.1,1.5c-1.6,0.3-3.5,0.5-4.7,0.4c-4.6-0.4-9-2-13.6-2.8c-5.1-0.8-10.3-1.1-15.4-1.8c-9.9-1.4-20-3.1-29.5-5.9
	c-1.9-0.6-4.5-1.7-6.7-2.3c-2.4-0.6-5-0.7-7.5-0.5c-2.4,0.2-4.8,0.5-7.2,0.3c-2.3-0.2-3.9-0.4-6.3-0.9c-6.2-1.2-12.1-2.8-18.1-3.5
	l1.4-14.6c3.6,0.8,7.4,0.9,11.1,1.2c0.5,0,0.9,0.1,1.4,0.1c0,0,0,0,0,0c0.5,0.1,1.1,0.3,1.1,0.3c1.5,0.3,2.9,0.6,4.3,1
	c3.8,1.1,7.3,1.9,11.5,2.1c4.1,0.2,8.2-0.5,12.2-1c0.1,0,0.3,0,0.4-0.1c0.4,0,0.9-0.1,1.2-0.1c0.7,0,1.5-0.1,2.2-0.1
	c0.7,0.3,3.6,0.8,4.2,1c1.7,0.5,3.5,1,5.2,1.5c1.4,0.4,2.8,1,4.2,1.3c-0.1,0-0.2,0-0.3-0.1c-1-0.3-2.5-0.6,0,0
	c0.2,0,0.3,0.1,0.4,0.1c0.8,0.3,1.6,0.6,2.4,0.9c3,1.1,5.9,2.4,8.8,3.7c5.1,2.4,10.5,4.8,16.2,5.8c6.2,1.1,12.4,1,18.6-0.3
	c2.6-0.5,5.2-1.3,7.7-2.1c1.5-0.5,3-0.9,4.6-1.3c0.8-0.2,1.6-0.3,2.3-0.5c0.5-0.1,0.9-0.2,1.4-0.2c-0.6,0.1-1.1,0.1-1.7,0.2
	c0.8-0.5,3.5-0.2,4.5-0.2c0.8,0,1.7,0.1,2.5,0.1c0.1,0,0.3,0,0.4,0.1c2.5,0.4,5,0.8,7.5,1.3c6.2,1.5,12.3,4,18.9,4.2
	c4.1,0.1,8.8-1.1,12.1-3c0.2-0.1,0.4-0.3,0.6-0.4c1.7,0.5,3.4,1.2,5.2,1.5c6.8,1.4,13.6,0.3,20.4-0.7c0,0,0,0,0.1,0c0.5,0,1,0,1.5,0
	c0.3,0.2,0.7,0.2,0.9,0.2c0.1,0,0.2,0.1,0.3,0.1c0.4,0.2,0.9,0.4,1.3,0.5c2.1,0.8,4.2,1.5,6.4,1.9c1.5,0.3,2.9,0.7,4.3,1.1
	c1.1,0.3,4.4,1.7,0.8,0.2c2.8,1.2,6,2.1,8.9,3.1c9.6,3.2,20,3.5,30.2,3c7.1-0.3,13.8-1.1,19.3-5.1c0.8-0.6,1.5-1.2,2.2-1.9
	c0,0,0.1-0.1,0.1-0.1c0.2-0.1,0.4-0.1,0.6-0.1c0.4-0.1,0.8-0.1,1.2-0.2c2.1-0.4-1.5,0.1-1.5,0.1c2.1-0.6,5.3-0.2,7.5-0.1
	c1.1,0,2.2,0.1,3.4,0.2c0,0,0.1,0,0.1,0c3.1,0.5,1,0.1,0,0c-0.2,0-0.4-0.1-0.6-0.1c0.5,0.1,1,0.1,1.5,0.2c1.8,0.2,3.5,0.5,5.3,0.8
	l-1.3,13.2C286.9,265.8,284.1,265.3,281.3,266.6z"/>
<path class="st5" d="M9.4,260.7c5.5,1.2,10.8,2.4,16.4,2.9c2.6,0.2,5.3,0.1,8-0.1c2.6-0.2,4.1-0.3,6.2,0.5c5.2,1.9,10.6,3.2,16,4.4
	c10.3,2.2,20.8,3.7,31.3,4.8c4.5,0.5,8.9,1.8,13.3,2.6c5.4,1,10.6,1.1,15.9-0.1c9.1-2.1,19-3.9,28.6-2.7c4.9,0.6,9.7,1.7,14.5,2.4
	c5.1,0.8,10.3,1.1,15.5,0.9c10.4-0.3,20.7-1.4,31.1-1.3c9.5,0.1,18.4,3.8,27.9,5.1c4.7,0.6,8.3,1.1,13.4,2.2c4.5,1,9.1,2,13.8,2
	c9.4,0,18.6-4.4,26.5-8l-1.4,14l-285.8-18l1.3-13.2C4.5,259.6,7,260.2,9.4,260.7z"/>
<path class="st5" d="M107.9,210c0.3,0,0.6,0,0.9,0c-0.3,0.1-0.7,0.2-0.9,0.2C107.1,210.2,106.6,210,107.9,210z"/>
<path class="st6" d="M141.3,92.9l-2.9-0.3c1.8-9.8,11-17.2,21.9-18.5l7.8-47.3l7.1,49.5c9.1,4.1,14.6,12.9,12.8,22.3l-2.4-0.3
	L166.5,250l-13-1l6.9-54.6l-25-2l-6.9,54.6l-6.5-0.5L141.3,92.9z M163.4,116.4c8.2,0,14.9-5.9,14.9-5.9s-6.7-5.9-14.9-5.9
	c-8.2,0-14.9,5.9-14.9,5.9S155.1,116.4,163.4,116.4z"/>
<path class="st7" d="M141.3,92.9l-2.9-0.3c1.8-9.8,11-17.2,21.9-18.5l7.8-47.3l0.2,1.7c-0.5,7.4,0,14.7,0.5,22.1
	c0.5,7.8,0.4,15.5-0.7,23.2c-0.9,4.5-2,9-3.5,13.4c-1.9,5.5-4.8,10.6-6.6,16.1c-0.3,0.8-0.5,1.6-0.8,2.5c-5.1,1.7-8.7,4.8-8.7,4.8
	s2.6,2.2,6.4,3.9c-1.9,8.4-3,17-4.3,25.5c-1.3,6.8-3.2,13.4-5,20.1c-2.9,10.7-3.4,21.8-3.5,32.8l-6.8-0.5l-6.9,54.6l-6.5-0.5
	L141.3,92.9z"/>
<path class="st6" d="M61.8,107.6l-5.9-65l19.3,61.6c13.4-0.3,25.5,7.8,28.1,19.4l-15.6,2.2l15.1-0.9l12.1,127.9L97,253.8V203H72.9
	v52.3l-8.7,0.5L52.3,130.7l-2.5,0.4C47.7,121.5,52.8,112.4,61.8,107.6z M80.3,145.6c8.2,0,14.9-5.9,14.9-5.9s-6.7-5.9-14.9-5.9
	s-14.9,5.9-14.9,5.9S72,145.6,80.3,145.6z"/>
<path class="st7" d="M61.8,107.6l-5.4-59.7c0.6,2.4,1.2,4.7,1.8,7c1,4,1.8,8,2.5,12.1c1.2,7.7,2.3,15.4,3.4,23
	c0.8,5.6,1.6,11.3,2.8,16.9c0.5,2.2,1.1,4.3,1.7,6.4c-0.1,0.3-0.2,0.5-0.4,0.8c-0.9,2.3-1.3,4.5-1.7,6.9c-0.4,2.3-0.8,4.4-0.5,6.6
	c0.4,3.2,1,6.3,1.6,9.5c0,0.2,0.1,0.5,0.1,0.7c-1.5,1-2.4,1.8-2.4,1.8s1.2,1,3.1,2.2c0.4,2.5,0.9,5.1,1.3,7.6
	c1.2,7.2,2.2,14.3,2.6,21.6c0.4,7.1-0.1,14.2,0.2,21.3c0.2,3.5,0.5,7,1,10.6h-0.7v52.3l-8.7,0.5L52.3,130.7l-2.5,0.4
	C47.7,121.5,52.8,112.4,61.8,107.6z"/>
<path class="st6" d="M210.3,68.6l2.4-58.8l14.1,56.8c17.2,1.3,31.8,12.7,34.2,27.9l-9.2,0.9l22.8,142.3l-16.3,1.7l-7.9-49.2
	l-25.6,2.6l7.9,49.2l-16.3,1.7l-22.8-142.3l-6.2,0.6C185.2,87.2,195,73.7,210.3,68.6z M250,111.7c0,0-6.7-5.9-14.9-5.9
	c-8.2,0-14.9,5.9-14.9,5.9s6.7,5.9,14.9,5.9C243.3,117.5,250,111.7,250,111.7z M232.8,146.2c-1.7-0.5-3.9-0.7-6.3-0.4
	c-3.2,0.4-5.8,1.6-7,3.1c13.3,0.7,22.3,0.7,28.2,0.5c0.4-0.6,0.6-1.3,0.5-2c-0.5-2.4-4.8-3.8-9.6-3.2
	C236.3,144.5,234.2,145.3,232.8,146.2z M216.4,153.2c0.9,4.5,6.5,7.5,12.6,6.8c3-0.4,5.5-1.6,7.2-3.2c2.3,1.2,5.1,1.7,8.1,1.3
	c4.4-0.5,7.8-2.9,9-5.9c-7.5-0.1-19-1-36.1-3.4C216.4,150.2,216.1,151.7,216.4,153.2z M218.9,132.4c8.2,0,14.9-5.9,14.9-5.9
	s-6.7-5.9-14.9-5.9c-8.2,0-14.9,5.9-14.9,5.9S210.7,132.4,218.9,132.4z"/>
<path class="st7" d="M210.3,68.6l2.4-58.8l0.7,2.8c0.7,10.3,3.3,20.4,3.3,30.8c0,6.1-0.5,12.3-0.4,18.4c0.1,4.1,0.5,8.1,0.3,12.2
	c-0.1,0.4-0.3,0.8-0.4,1.3c-1.2,1.8-2.5,3.5-3.5,5.4c-1.8,3.3-3.4,5.9-4.1,9.3c-0.4,2-0.7,4.1-1.1,6.1c0,0.2-0.1,0.4-0.2,0.7
	c-0.9,2.2-1.3,4.4-1.3,6.6v2.7c0,0.5,0,0.9,0.1,1.4c-0.1,1.6-0.1,3.3-0.2,4.9c-0.1,4.3-0.2,8.6,0,12.9c-1.2,0.8-1.9,1.5-1.9,1.5
	s0.8,0.7,2.1,1.6c0.2,2.7,0.5,5.5,0.9,8.2c0.8,5.4,1.6,10,3.7,14.7c-0.9,4.8-0.5,9.2,0.8,14.3c1.2,5,2.7,10,3.8,15.1
	c1,7.9,1.4,15.9,2.7,23.8c1,6.1,1.9,12.2,4.1,18.2c1.3,3.5,2.5,6.9,3.3,10.5c0.4,3.3,0.5,6.6,0.5,10c0,0,0,0,0,0l-9.3,0.9
	l-22.8-142.3l-6.2,0.6C185.2,87.2,195,73.7,210.3,68.6z"/>
</svg>
