<svg xmlns="http://www.w3.org/2000/svg" viewBox="0 0 595.28 583.73"><polygon points="-9.77 326.44 31.86 168.95 144.68 330.12 200.07 244.75 260.74 330.12 361.62 156.67 420.74 336.42 486.53 184.15 583.12 336.42 367.09 363.97 195.8 363.97 113.47 363.97 -3.94 383.65 6.05 343.5 -9.77 326.44" style="fill:#95c11f"/><path d="M133.14,334.68c.68-2.38,1.3-4.76,1.79-7.18.21-1,.4-2,.56-3.05l-.44,3.19c.95-2.92.89-6.61,1-9.91L31.86,169l-1.16,4.38A53.11,53.11,0,0,1,33,188.43c0,32.64.71,65.28-1.74,97.86C28.9,317.75,22.93,348.8,18,380l95.43-16h30.3C134.63,357.4,130.12,345.23,133.14,334.68Z" style="fill:#00a19a"/><path d="M583.12,336.42,508.79,219.26a138.23,138.23,0,0,1,1.56,17,122,122,0,0,1,4,20.51c3.21,27.07,5.51,54.2,9.3,81.22a18.69,18.69,0,0,1-.23,6Z" style="fill:#00a19a"/><path d="M423.33,342.72l0-.16c0-.12,0-.24,0-.38.22-1.95.47-3.91.68-5.87.36-3.29.67-6.58,1-9.88l-4.31,10L364.62,165.79c-.11,27-.9,54-6.41,80.61-6.38,30.88-16.3,61.09-23.76,91.75-3.61,14.86-20.76,22.2-35.45,19-15.63-3.36-23.51-19.66-20.14-33.52,3.72-15.27,8-30.44,12.17-45.62l-30.29,52.08-56.86-80a132.21,132.21,0,0,1-4.3,28c-.92,3.68-1.92,7.35-2.8,11-.44,1.83-.85,3.67-1.21,5.52-.14.72-.24,1.25-.32,1.62s-.11.78-.18,1.26q-1,7.1,0,.32c-.15,1.31-.29,2.62-.4,3.93-.18,2-.32,4-.44,5.92-.26,4-.43,7.95-.73,11.92a146.59,146.59,0,0,1-4.74,29.55,26.18,26.18,0,0,1-11.1,14.8H367.09l53.23-6.79C421.54,352.41,422.5,347.59,423.33,342.72Z" style="fill:#00a19a"/><rect x="-22.71" y="310.61" width="629.02" height="94.72" style="fill:#36a9e1"/><path d="M56.24,350.41a163.92,163.92,0,0,0,36.2-10.61c13-5.43,25.89-10,40.33-8.18,10.89,1.37,21.37,5.09,31.82,8.16,4.89,1.44,9.8,2.79,14.82,3.75,1.29.24,2.59.48,3.89.65l.89.06c2.27.13,4.53.28,6.81.26,20.59-.13,41-10.26,62.2-11.8,23.48-1.71,45.24,8,67.59,11,11.5,1.54,23.75-.67,35.55-1.72,13.51-1.21,26.54.57,39.89,2.43,11.41,1.59,22.44,3.14,34.16,3.11,10.26,0,18.89-2.46,28.61-6.16,10.79-4.11,21.65-7.69,33.41-5.53,8.33,1.53,17.69,5.58,25,6.61a138.23,138.23,0,0,0,15.87.72c4.8,0,9.6-.21,14.39-.49,4.5-.27,9-.48,13.51-.88l.26,0,.41-.07,2.87-.46c2-.33,4-.7,6-1.08,11.13-2.09,23.62-5.18,35.64-5.24V321c-9.42,2.8-18.56,6.49-28.3,8.29a69.5,69.5,0,0,1-24.15.53c-6.4-1-12.33-3.45-18.42-5.48a52.14,52.14,0,0,0-7.08-1.93c.09.08-2.44-.13-3-.13-1.18,0-2.36.06-3.53.14-1.33.1-2.66.24-4,.42,1-.1.91-.07-.19.11-1.47.29-2.94.61-4.39,1-3.33.84-6.59,1.86-9.86,2.87-6.84,2.09-14.32,4.66-21.6,4.34-4.37-.2-8.23-1.58-12.2-3.2l-.4-.17c-.18.22-.37.44-.56.65a27,27,0,0,1-6.44,5.29c-5.47,3.19-12.69,3.47-18.94,3.78-12.63.62-25.37-1-37.83-2.78-5.6-.78-11.16-1.74-16.73-2.67-1.5-.26-3-.49-4.5-.7-.43-.06-2.18-.28-2.55-.34-1.38-.14-2.76-.26-4.15-.28-.95,0-5.58.4-4.26.18-3.25.45-6.47,1-9.73,1.39a62.31,62.31,0,0,1-15,.18c-12.3-1.54-24.35-4.44-36.6-5.68-13.34-1.35-26.77-2-40.2-2.11s-26.91.59-40.34,1c-13.17.41-24.47,2.47-37.43,4.41a170.56,170.56,0,0,1-44.23.92c-14.31-1.57-27.76-4.92-41.62-8.41-1.41-.36-2.86-.61-4.26-1l-.66-.18h-.43c-.79,0-1.72,0-2.5-.05l-.53-.06a60.38,60.38,0,0,0-13.24,4.4c-9.34,4-17.08,8.47-27.69,8.82-8,.27-15.88-1.39-23.71-2.77-3.61-.63-7.22-1.24-10.85-1.78l-2.73-.37-.23,0c-2-.19-4-.41-6-.56a102.16,102.16,0,0,0-11.74-.27c-.9,0-5.07.66-4,.39l-3.6.75a10.92,10.92,0,0,0-1.7.61l-.14.07-.83.49a.22.22,0,0,0,0,.08c.74-.2.47-.08,0,.13-.21.91-1.06,2.86-.9,1a.88.88,0,0,0-.07.12c-1.36,7.35-6.3,13.49-15,13.55v13.52C3.39,354.55,30.1,354.84,56.24,350.41Z" style="fill:#1d71b8"/><path d="M229.73,400.4a7.18,7.18,0,0,1-4.95,2c-6.87,0-13.81,0-20.72.2a7.81,7.81,0,0,1-1.05,2.75h46.4C242.83,403.8,236.29,402,229.73,400.4Z" style="fill:#1d71b8"/><path d="M599.71,364.44l-.92.07-1.15.2-3.14.49c-10.91,1.82-21.67,4.33-32.7,5.51-21.52,2.31-45.81,3.36-66.49-3.57-2.19-.73-4.33-1.59-6.53-2.27-.86-.26-4.73-.85-3.17-.84-.47,0-.93,0-1.4,0,.1.06-2.2.34-2.66.46-2.47.64-4.92,1.45-7.33,2.26-9.1,3.05-17.64,7-27.26,8.48-24.81,3.73-48.79-2.66-73.3-4.6-13.11-1-25.94,1.86-39,2.58-12,.67-24.33-1.6-35.94-4.41-10.33-2.51-20.76-5.72-31.31-6.89a82.39,82.39,0,0,0-15.86-.1c-3.22.26-1.31.18-.62.07-1,.16-2,.33-3.05.52-2.28.43-4.55.95-6.8,1.5-22.35,5.5-43.33,11.71-66.68,8.11-9.48-1.46-18.56-4.5-27.69-7.2-5.36-1.58-10.76-3-16.21-4.28a21.69,21.69,0,0,0-11,.34c-10.46,2.54-19.27,7.62-29.93,11.24-12.44,4.23-25.39,6.49-38.46,8.11-23.69,2.94-47.65,3.16-71,8.22a18.54,18.54,0,0,1-2.85.37V394c4.59,1.81,9.38,1.86,14.32,1.86a7.42,7.42,0,0,1,4.22,1.22c18.43-1.3,36.75-3.76,55.17-5.49a139.45,139.45,0,0,1,37.84,1.19c1.15.2,2.29.42,3.44.64.24-3.15,2.55-6,7-5.95,2.52,0,5,.22,7.52.42,8.91.34,17.82.27,26.63,1.93a7.14,7.14,0,0,1,5.12,4.83,8,8,0,0,1,.42,3.77,115.65,115.65,0,0,0,23.2-5.91,6.83,6.83,0,0,1,7.06-7.14c14.8-.19,32.27-5.35,47.05-1.78A172.67,172.67,0,0,1,234,387.15c18.8,4.68,38.91,11.59,58.39,6.26,10.12-2.76,19.51-7.23,30.27-7.37s21.24,3.51,32,3.54c22.65.05,45.33-2.15,68-2.36,11.72-.11,23.43.46,35.14.07s23.32-1.36,35-2.23c22.47-1.68,44.44-2.15,66.8,1,11.47,1.63,23.83,3.22,35.34,1A51.45,51.45,0,0,0,606.31,383V364C604.1,364.07,601.91,364.26,599.71,364.44Z" style="fill:#1d71b8"/><path d="M51.86,405.33h28c-1.31-.17-2.62-.33-3.93-.46A125.22,125.22,0,0,0,51.86,405.33Z" style="fill:#1d71b8"/><path d="M589.53,401.63c-12.82,1-25.48-1.16-38.12-2.8-25.41-3.31-51-.33-76.45,1.4-23.1,1.57-46.2.5-69.34,1.19-22.13.67-45.11,3.89-67,.29-5.62-.93-11.22-2-17-1.79-5.14.2-10.16,1.86-15,3.48-2,.69-4.06,1.33-6.08,1.93H606.31V398C601,400.33,595.36,401.17,589.53,401.63Z" style="fill:#1d71b8"/><polygon points="617.48 589.16 -9.6 635.92 -27.14 425.71 599.94 378.95 617.48 589.16" style="fill:#f9b233"/><path d="M29.84,485.56a66.8,66.8,0,0,1,20.58,6.74,43.29,43.29,0,0,1,10.41,7.83c.76.76,1.86,1.73,2.91,2.73l.84.19c5.22.42,10.47.56,15.71.6,4.31,0,8.63,0,12.95,0,.93,0,4.93-.3,6.82-.39.79-.14,1.57-.29,2.35-.46a90.7,90.7,0,0,0,9.74-2.73c2.35-.79,10.39-4.83,2.19-.69,6-3,12.68-5.3,18.87-7.73a148.67,148.67,0,0,1,16.56-5.49c.9-.2,1.8-.43,2.69-.68l.91-.45a89.59,89.59,0,0,1,13.37-5.62c15.53-4.47,30.95-1.22,46.46,1.35l2.67.12c.19-.21,1.26-.48,3.2-.31,3.41-1,6.64-2.51,10-3.63,15.58-5.18,33.08-5.34,45.89,5.41,1.23-.39,2.47-.77,3.67-1.18,12.54-4.31,25.27-8.32,38.49-10.25,17.19-2.52,34.52-2.59,51.3,2.42,6.28,1.87,12.29,4.49,18.56,6.4,2.6.79,5.22,1.51,7.88,2.09.62.14,1.24.26,1.86.38,2,.08,4.09.25,6.16.15l.68-.16a61.22,61.22,0,0,0,6.27-1.74c4.06-2,2.79-1.13,1.11-.42l.65-.27c11.89-5.43,22.84-12.45,34.87-17.69a428.33,428.33,0,0,1,42.09-15.86c15.29-4.84,29.89-2.84,45.4-.54l1,.15c1.52.1,3,.27,4.56.33,1.29.06,2.63,0,3.92.07,5.05-1.6,10.06-3.38,15.14-4.9,8.13-2.44,16.78-3.42,25.25-4.07,2.07-.16,4.31-.48,6.51-.66a7,7,0,0,1,2.33-.15c2-.69,4.1-1.15,6.12-1.9a22.93,22.93,0,0,1,5.7-1.31l-2.57-30.73c-9.82,2.39-19.88,3.91-29.77,6.13-14.31,3.2-27.77,9.1-42.12,12.11-17.79,3.74-35.44,3.45-52.53-2.83-1.37-.5-2.76-.95-4.15-1.4a63.55,63.55,0,0,1-7.63,5.91c-13.46,8.93-29.71,7.39-43.92,1.81a47.53,47.53,0,0,1-10.7,4.65c-9.49,2.61-18.75,1.71-28-1.06l-.36-.08a5.48,5.48,0,0,1-2.5-.54c-1.44-.05-2.88-.11-4.32-.13-5.57-.08-11.16,0-16.71.45l-2.1.18c-1.38.3-2.82.71-4.23,1a76,76,0,0,1-9.82,7,50.68,50.68,0,0,1-26,6.2c-8.38-.26-16.63-2.07-24.71-4-2.61-.62-5.22-1.22-7.86-1.72-.48,0-1.07,0-1.61,0-1.19.35-2.39.65-3.56,1-1.92.64-3.8,1.37-5.7,2a131.06,131.06,0,0,1-15,4.19,337.15,337.15,0,0,1-39.14,6.29,122.53,122.53,0,0,1-37.73-1.54l-.43-.09c-1.81.49-4,1.06-4.42,1.22-6.69,2.36-11.55,4.21-19,4.77-7.65.57-15.24-1.2-22.32-3.81-3.41-1.26-6.77-2.62-10.15-4l-.46-.13c-.74-.21-1.46-.47-2.19-.69-.79,0-1.69-.06-2.39-.11-1.12.32-2.29.55-3.41.87-5.69,1.62-11.09,4-16.64,6-7.74,2.8-16.17,4.91-24.53,4.32-9.71-.68-16.62-3.21-25.39-6.72h0l3.67,1.47c-.95-.37-1.91-.73-2.88-1.05l-1.07-.33-1.63.47c-3.74,1.67-7.63,3.22-11.42,4.66-12.28,4.65-26.49,5.62-39.52,6.82q-10.77,1-21.59,1.19l2,23.52C-4.85,483.62,12.86,482.9,29.84,485.56Z" style="fill:#7d4e24"/><path d="M2.12,574.23c9.27,5,19.29,10.43,28.79,13.85,2.49.9,5,1.72,7.57,2.39a43.44,43.44,0,0,0,4.38,1l1,0a55.28,55.28,0,0,0,13-1.5c10.62-2.31,20.93-5.82,31.73-7.37a243.72,243.72,0,0,0,34.86-7.74c11.17-3.3,22.31-6.23,34-7.22,10.78-.92,21.75-.37,32.53.23,21.17,1.19,44.3,4.7,64.82,2.19,10.57-1.29,20.89-4.21,31.34-6.15a145.82,145.82,0,0,1,35.2-2.62,228.28,228.28,0,0,1,36.19,5.26c5.26,1.17,10.44,2.53,15.65,3.88a33.57,33.57,0,0,0,10.38,1.05c10.12-1,19.8-5.21,29.73-7.17,11.1-2.2,22.58-2.89,33.76-4.73,21.7-3.57,43.95-8.11,64.67-15.31,4.12-1.44,9.76-4.5,14.7-6A43.94,43.94,0,0,1,542.9,537c5.28.48,10.5,1.31,15.7.91a84.66,84.66,0,0,0,13.86-2.25c13.55-3.1,26.48-7.16,39.8-9l-3.17-38c-7.85,2-16.16,2.46-24.25,3-1,.07-2.06.14-3.09.23h-.1c-1.16.28-2.52.68-2.52.69a75.62,75.62,0,0,0-9.36,2.65c-8.33,3-16.1,5-25.17,5.43s-18.05-1.27-26.86-2.6l-1-.15c-.92-.05-2-.27-2.74-.33-1.63-.11-3.26-.17-4.89-.15-1.49.77-8,2.2-9.14,2.59-3.8,1.28-7.59,2.58-11.36,3.94-3.05,1.1-6.08,2.54-9.19,3.44l.59-.17c2.14-.73,5.42-1.58,0,0-.35.12-.67.24-.91.34q-2.69,1.13-5.34,2.31-9.87,4.39-19.27,9.66c-11.11,6.2-22.95,12.41-35.62,15.17A90.74,90.74,0,0,1,378,534a147.16,147.16,0,0,1-16.89-5.33c-3.34-1.23-6.65-2.47-10.1-3.4-1.69-.46-3.4-.85-5.12-1.19-1-.22-2-.4-3.05-.56l3.64.43c-1.78-1.31-7.68-.48-9.94-.45-1.83,0-3.65.18-5.47.25l-.84.18c-5.47,1.17-11,2-16.4,3.5-13.7,3.79-27.08,10.5-41.58,10.82a47.6,47.6,0,0,1-26.48-7.81l-1.4-1c-3.84,1.28-7.5,3.06-11.45,4-15,3.64-29.89.83-44.72-1.86h-.17l-3.35-.07a4.41,4.41,0,0,1-2.08.57,2.64,2.64,0,0,1-.61.16c-1,.46-1.93.93-2.91,1.37a90,90,0,0,1-14,5c-3.18.83-6.33,1.75-9.44,2.82-2.33.81-9.55,4.46-1.75.54-6.17,3.1-13.18,5.5-19.58,8-21,8.25-43.8,9-66.26,7.74-15.53-.89-30.31-2.93-42.29-13.22A61.49,61.49,0,0,1,21,539.66l-.29-.29c-.45-.15-.9-.29-1.34-.39-.9-.2-1.82-.34-2.72-.54-4.5-1,3.39.38,3.37.37-4.57-1.56-11.69-.58-16.46-.34q-3.7.18-7.39.54L-4,539c-6.77,1.25-2.13.23,0,0l1.28-.24c-1.06.2-2.18.3-3.24.45q-5.79.87-11.52,2l2.85,34.22A14.8,14.8,0,0,1,2.12,574.23Z" style="fill:#7d4e24"/><path d="M598.52,558.85c-12,3.24-23.63,6.21-36,7.59a82.57,82.57,0,0,1-17.66-.3c-5.81-.62-8.89-.72-13.53,1.32-11.31,5-23.16,8.38-35.2,11.47-22.6,5.81-45.57,9.56-68.77,12.39-9.82,1.2-19.47,4.64-29.23,6.86a70.89,70.89,0,0,1-35-.35c-20.07-5.33-41.74-10-62.68-7.09-10.73,1.5-21.19,4.44-31.85,6.33a165.29,165.29,0,0,1-34,2.45c-22.78-.68-45.47-3.69-68.28-3.32-20.91.35-40.36,9.86-61.25,13.25-10.32,1.68-18.24,2.87-29.39,5.78-9.8,2.57-20,5.15-30.23,5.2-20.59.1-40.7-11.4-58.1-20.8l3,36.29,627.08-46.76L614.63,555C609.25,555.94,603.76,557.44,598.52,558.85Z" style="fill:#7d4e24"/><path d="M382.54,427.24l-1.92-.06c.7.21,1.58.42,2.07.53C384.31,427.73,385.36,427.28,382.54,427.24Z" style="fill:#7d4e24"/><path d="M309.12,123.18l6.42-.9c-4-25.53-24.16-44.68-48-48.1L250.29-48.73,234.82,79.8c-20,10.61-32,33.48-28.17,57.85l5.24-.74L253.9,531l28.6-2.72L267.39,386.49l54.87-5.22L337.37,523l14.23-1.35Zm-48.38,61C242.65,184.15,228,169,228,169s14.66-15.2,32.75-15.2S293.48,169,293.48,169,278.82,184.15,260.74,184.15Z" style="fill:#e94e1b"/><path d="M309.12,123.18l6.42-.9c-4-25.53-24.16-44.68-48-48.1L250.29-48.73l-.53,4.4c1.17,19.12-.07,38.26-1.07,57.4a354.8,354.8,0,0,0,1.59,60.2,285.15,285.15,0,0,0,7.79,34.92c4.2,14.18,10.53,27.64,14.56,41.89.6,2.12,1.16,4.24,1.71,6.37A59.46,59.46,0,0,1,293.48,169a60.25,60.25,0,0,1-14.14,10.24c4.09,21.9,6.47,44.14,9.36,66.21,2.83,17.59,7.05,34.69,11,52.11,6.27,27.78,7.52,56.57,7.6,85.18l15-1.42L337.37,523l14.23-1.35Z" style="fill:#be1622"/><path d="M483.66,161.38l13-168.8L454.22,152.52c-29.37-.81-56,20.35-61.57,50.38l34.17,5.63-33.12-2.38L367.09,538.09l39.28,2.81V409h52.84V544.68l19.17,1.38,26-324.76,5.52.91A58.88,58.88,0,0,0,483.66,161.38ZM443.13,260c-18.08,0-32.74-15.2-32.74-15.2s14.66-15.2,32.74-15.2,32.74,15.2,32.74,15.2S461.21,260,443.13,260Z" style="fill:#e94e1b"/><path d="M483.66,161.38l11.92-155c-1.22,6.15-2.69,12.26-4,18.26C489.29,35,487.56,45.49,486,56c-2.73,19.92-5,39.89-7.46,59.84-1.82,14.64-3.45,29.46-6.07,44-1,5.62-2.44,11.16-3.76,16.73.26.7.52,1.41.77,2.13,2.07,5.92,2.88,11.75,3.76,18,.84,5.9,1.67,11.29,1.05,17.19-.87,8.2-2.25,16.37-3.53,24.54-.09.59-.17,1.19-.26,1.79a52.24,52.24,0,0,1,5.37,4.64A55.26,55.26,0,0,1,469,250.5q-1.44,9.9-2.86,19.8c-2.57,18.59-4.8,37.23-5.72,56-.9,18.43.33,36.85-.52,55.28-.43,9.16-1.2,18.3-2.18,27.42h1.49V544.68l19.17,1.38,26-324.76,5.52.91A58.88,58.88,0,0,0,483.66,161.38Z" style="fill:#be1622"/><path d="M157.79,60,152.47-92.78l-31,147.51C83.77,58,51.75,87.63,46.41,127.12l20.15,2.44L16.52,499l35.77,4.32L69.58,375.62l56.09,6.79L108.38,510.09l35.77,4.33,50-369.41,13.54,1.64C212.9,108.43,191.45,73.21,157.79,60Zm-87,111.91s14.66-15.21,32.74-15.21,32.74,15.21,32.74,15.21-14.66,15.2-32.74,15.2S70.8,171.88,70.8,171.88Zm37.58,89.73a27.92,27.92,0,0,1,13.82-1.09c7,1.09,12.63,4.23,15.4,8-29.29,1.73-49,1.75-62,1.2a7.6,7.6,0,0,1-1-5.12c1.09-6.21,10.52-9.91,21.07-8.26A27.22,27.22,0,0,1,108.38,261.61Zm36.06,18.12c-1.89,11.65-14.23,19.53-27.56,17.59A25.71,25.71,0,0,1,101.09,289a26.61,26.61,0,0,1-17.72,3.51c-9.62-1.4-17.1-7.53-19.82-15.2,16.49-.38,41.66-2.53,79.18-8.9A19.1,19.1,0,0,1,144.44,279.73Zm-5.54-54.05c-18.08,0-32.74-15.21-32.74-15.21s14.66-15.2,32.74-15.2,32.74,15.2,32.74,15.2S157,225.68,138.9,225.68Z" style="fill:#e94e1b"/><path d="M157.79,60,152.47-92.78l-1.55,7.39c-1.45,26.69-7.19,53-7.16,79.88,0,15.87,1.1,31.82.79,47.68-.2,10.53-1.08,21-.6,31.55.29,1.09.6,2.18.94,3.25,2.62,4.65,5.45,9.21,7.71,14,4,8.56,7.36,15.31,8.89,24.16.9,5.26,1.62,10.56,2.31,15.86.11.58.22,1.16.34,1.74a53.29,53.29,0,0,1,2.93,17.09v7.08c0,1.22,0,2.42-.14,3.61.21,4.22.33,8.44.44,12.66.28,11.12.37,22.31,0,33.48a50.12,50.12,0,0,1,4.27,3.78,50.35,50.35,0,0,1-4.62,4.06c-.39,7.13-1,14.25-1.92,21.32-1.82,13.93-3.52,25.88-8.07,38.1,2,12.5,1,23.93-1.69,37.07s-6,26-8.38,39.12c-2.22,20.53-3.06,41.18-5.85,61.66-2.16,15.86-4.26,31.73-9,47.14-2.76,9.08-5.42,18-7.25,27.18-.81,8.59-1.11,17.2-1.14,25.84h0l20.38,2.46,50-369.41,13.54,1.64C212.9,108.43,191.45,73.21,157.79,60Z" style="fill:#be1622"/></svg>